<?xml version="1.0" encoding="UTF-8" standalone="no"?>
<svg
   xmlns:dc="http://purl.org/dc/elements/1.1/"
   xmlns:cc="http://creativecommons.org/ns#"
   xmlns:rdf="http://www.w3.org/1999/02/22-rdf-syntax-ns#"
   xmlns:svg="http://www.w3.org/2000/svg"
   xmlns="http://www.w3.org/2000/svg"
   xmlns:sodipodi="http://sodipodi.sourceforge.net/DTD/sodipodi-0.dtd"
   xmlns:inkscape="http://www.inkscape.org/namespaces/inkscape"
   sodipodi:docname="map_thermal_source.svg"
   inkscape:version="1.0 (4035a4fb49, 2020-05-01)"
   id="svg3632"
   height="18"
   width="18"
   version="1.1">
  <metadata
     id="metadata10">
    <rdf:RDF>
      <cc:Work
         rdf:about="">
        <dc:format>image/svg+xml</dc:format>
        <dc:type
           rdf:resource="http://purl.org/dc/dcmitype/StillImage" />
        <dc:title></dc:title>
      </cc:Work>
    </rdf:RDF>
  </metadata>
  <sodipodi:namedview
     fit-margin-bottom="0"
     fit-margin-right="0"
     fit-margin-left="0"
     fit-margin-top="0"
     inkscape:document-rotation="0"
     inkscape:current-layer="layer2"
     inkscape:window-maximized="1"
     inkscape:window-y="0"
     inkscape:window-x="0"
     inkscape:cy="10.077086"
     inkscape:cx="11.648396"
     inkscape:zoom="24.247735"
     inkscape:guide-bbox="true"
     showguides="true"
     showgrid="true"
     id="namedview8"
     inkscape:window-height="872"
     inkscape:window-width="1616"
     inkscape:pageshadow="2"
     inkscape:pageopacity="1"
     guidetolerance="10"
     gridtolerance="10"
     objecttolerance="10"
     borderopacity="1"
     bordercolor="#666666"
     pagecolor="#ff00ff">
    <inkscape:grid
       originy="4.5000005"
       originx="4.5000005"
       snapvisiblegridlinesonly="true"
       enabled="true"
       visible="true"
       empspacing="5"
       id="grid3632"
       type="xygrid" />
  </sodipodi:namedview>
  <defs
     id="defs3634" />
  <g
     transform="translate(4.5000005,3.5000005)"
     style="display:inline"
     inkscape:label="MASK_Background"
     id="layer2"
     inkscape:groupmode="layer">
    <ellipse
       r="9"
       id="ellipse138"
       cy="5.4999995"
       cx="4.4999995"
       style="display:inline;fill:#000000;stroke-width:1.57329" />
  </g>
  <g
     transform="translate(4.5000005,-17.5)"
     style="display:inline"
     inkscape:label="Layer"
     id="layer4"
     inkscape:groupmode="layer">
    <g
       id="Climb_SP"
       transform="matrix(2,0,0,2,55.332,4.0000005)">
      <path
         style="fill:#0ab9f3"
         id="path140"
         d="m -29.416,11.321792 c 0,0.878439 0.50204,2.829341 2.406088,3.69443 1.006728,0.458355 2.249035,0.236742 3.089886,-0.612326 0.991728,-0.999481 1.849344,-2.414596 0.282343,-4.208856 0,0 -1.32701,-1.2460133 -2.53226,-0.03026 -1.20525,1.215752 0.385574,2.433286 0.385574,2.433286 0.407632,0.368464 0.233815,0.822369 -0.354692,0.868649 -0.732327,0.05696 -2.040808,-0.307943 -2.040808,-2.144033 0,-1.6135869 1.439947,-2.9103313 2.76431,-2.9103313 2.16345,0 3.091651,1.3483644 3.38017,2.3923463 0.57792,2.084402 -0.540863,2.82934 -0.57792,2.970852 0,0 1.197309,-0.84462 1.197309,-2.484018 0,-1.9704806 -1.49818,-4.0415329 -3.999559,-4.0415329 -2.28874,0 -4.000441,1.7631091 -4.000441,4.0717939 z" />
    </g>
    <g
       id="Climb_SP-1"
       transform="matrix(2,0,0,2,55.332,4.0000005)"
       style="display:inline" />
    <g
       id="Climb_SP-4"
       transform="matrix(2,0,0,2,55.332,4.0000005)"
       style="display:inline;fill:#ff0000" />
  </g>
  <g
     transform="translate(4.5000005,4.5000005)"
     inkscape:label="NOAA_T"
     id="layer1"
     inkscape:groupmode="layer">
    <path
       d="m -25.40625,7.5019531 c -2.160035,0 -3.748047,1.6263588 -3.748047,3.8105469 0,0.391208 0.117716,1.078064 0.460938,1.75 0.343221,0.671936 0.903001,1.33411 1.796875,1.740234 0.905903,0.412451 2.040965,0.202884 2.810546,-0.574218 0.479241,-0.482988 0.906349,-1.054348 1.033204,-1.683594 0.126383,-0.626908 -0.01631,-1.330799 -0.75586,-2.181641 -0.01578,-0.01442 -0.298552,-0.27219 -0.708984,-0.4082029 -0.422002,-0.1398471 -0.919204,-0.1655787 -1.458984,0.3789059 -0.26708,0.269407 -0.362123,0.509821 -0.378907,0.734375 -0.01678,0.224555 0.04965,0.445035 0.15625,0.644532 0.213194,0.398992 0.572266,0.68164 0.572266,0.68164 a 0.25196562,0.25196562 0 0 1 0.01367,0.01172 c 0.254912,0.230418 0.376484,0.554052 0.269531,0.835938 -0.106953,0.281885 -0.404202,0.4504 -0.761719,0.478515 -0.420778,0.03273 -0.99034,-0.0549 -1.476562,-0.417969 -0.486222,-0.36307 -0.857422,-1.011349 -0.857422,-1.990234 0,-1.7652361 1.5449,-3.1582031 3.033203,-3.1582031 1.134605,0 1.974735,0.3647841 2.556641,0.875 0.581906,0.5102159 0.905407,1.1554361 1.060547,1.7167971 0.06025,0.217323 0.09151,0.41239 0.11914,0.605468 6.76e-4,-0.02618 0.01172,-0.04367 0.01172,-0.07031 0,-1.8427408 -1.385043,-3.7792969 -3.748047,-3.7792969 z"
       id="path2890"
       style="display:inline;fill:#0ab9f3"
       inkscape:original="M -25.40625 7.25 C -27.69499 7.25 -29.40625 9.0038152 -29.40625 11.3125 C -29.40625 12.190939 -28.904048 14.166161 -27 15.03125 C -25.993272 15.489605 -24.747101 15.255318 -23.90625 14.40625 C -22.914522 13.406769 -22.057999 11.98176 -23.625 10.1875 C -23.625 10.1875 -24.951 8.9404967 -26.15625 10.15625 C -27.3615 11.372002 -25.78125 12.59375 -25.78125 12.59375 C -25.373618 12.962214 -25.536493 13.42247 -26.125 13.46875 C -26.857327 13.52571 -28.1875 13.14859 -28.1875 11.3125 C -28.1875 9.6989131 -26.730613 8.40625 -25.40625 8.40625 C -23.2428 8.40625 -22.319769 9.7685181 -22.03125 10.8125 C -21.45333 12.896902 -22.587943 13.639738 -22.625 13.78125 C -22.625 13.78125 -21.40625 12.920648 -21.40625 11.28125 C -21.40625 9.3107694 -22.904871 7.25 -25.40625 7.25 z "
       inkscape:radius="-0.25194043"
       sodipodi:type="inkscape:offset"
       transform="matrix(2,0,0,2,55.332,-18)" />
  </g>
</svg>
